<svg width="128" height="128" viewBox="0 0 128 128" fill="none" xmlns="http://www.w3.org/2000/svg">
<rect width="128" height="128" rx="64" fill="#FFF7F7"/>
<path d="M51 25.0594C51 22.4771 53.4103 20.5715 55.9229 21.1673L89.9229 29.2291C91.7265 29.6568 93 31.2676 93 33.1212V83.9406C93 86.5229 90.5897 88.4285 88.0771 87.8327L54.0771 79.7709C52.2735 79.3432 51 77.7324 51 75.8788V25.0594Z" fill="#999DF2"/>
<path d="M41 31.0425C41 28.4656 43.4009 26.561 45.9102 27.1474L79.9102 35.0924C81.7199 35.5153 83 37.129 83 38.9875V88.9575C83 91.5344 80.5991 93.439 78.0898 92.8526L44.0898 84.9076C42.2801 84.4847 41 82.871 41 81.0125V31.0425Z" fill="#8263F2"/>
<path d="M30 39.0594C30 36.4771 32.4103 34.5715 34.9229 35.1673L68.9229 43.2291C70.7265 43.6568 72 45.2676 72 47.1212V97.9406C72 100.523 69.5897 102.428 67.0771 101.833L33.0771 93.7709C31.2735 93.3432 30 91.7324 30 89.8788V39.0594Z" fill="#6D28D9"/>
</svg>
